<svg width="21" height="20" viewBox="0 0 21 20" fill="none" xmlns="http://www.w3.org/2000/svg">
<path d="M2.73082 12.2643C1.47676 12.2643 0.456299 11.2482 0.456299 9.99963C0.456299 8.75103 1.47676 7.73501 2.73082 7.73501C4.29587 7.73501 5.41686 9.81026 5.46387 9.89882L5.51739 9.99963L5.46387 10.1004C5.41686 10.189 4.29515 12.2635 2.73082 12.2635V12.2643ZM2.73082 8.16705C1.71615 8.16705 0.89023 8.98937 0.89023 9.99963C0.89023 11.0099 1.71615 11.8322 2.73082 11.8322C3.85905 11.8322 4.78694 10.3978 5.0227 9.99963C4.78694 9.60143 3.85905 8.16705 2.73082 8.16705Z" fill="#E6D9A4"/>
<path d="M18.2692 12.2643C16.7048 12.2643 15.5831 10.189 15.5361 10.1012L15.4826 10.0004L15.5361 9.89955C15.5831 9.81098 16.7048 7.73573 18.2692 7.73573C19.5232 7.73573 20.5437 8.75175 20.5437 10.0004C20.5437 11.249 19.5232 12.265 18.2692 12.265V12.2643ZM15.9773 9.99964C16.2131 10.3978 17.1409 11.8322 18.2692 11.8322C19.2838 11.8322 20.1098 11.0099 20.1098 9.99964C20.1098 8.98938 19.2838 8.16706 18.2692 8.16706C17.1409 8.16706 16.2131 9.60144 15.9773 9.99964Z" fill="#E6D9A4"/>
<path d="M2.73082 12.2643C1.47676 12.2643 0.456299 11.2482 0.456299 9.99963C0.456299 8.75103 1.47676 7.73501 2.73082 7.73501C4.29587 7.73501 5.41686 9.81026 5.46387 9.89882L5.51739 9.99963L5.46387 10.1004C5.41686 10.189 4.29515 12.2635 2.73082 12.2635V12.2643ZM2.73082 8.16705C1.71615 8.16705 0.89023 8.98937 0.89023 9.99963C0.89023 11.0099 1.71615 11.8322 2.73082 11.8322C3.85905 11.8322 4.78694 10.3978 5.0227 9.99963C4.78694 9.60143 3.85905 8.16705 2.73082 8.16705Z" fill="#E6D9A4"/>
<path d="M18.2692 12.2643C16.7048 12.2643 15.5831 10.189 15.5361 10.1012L15.4826 10.0004L15.5361 9.89955C15.5831 9.81098 16.7048 7.73573 18.2692 7.73573C19.5232 7.73573 20.5437 8.75175 20.5437 10.0004C20.5437 11.249 19.5232 12.265 18.2692 12.265V12.2643ZM15.9773 9.99964C16.2131 10.3978 17.1409 11.8322 18.2692 11.8322C19.2838 11.8322 20.1098 11.0099 20.1098 9.99964C20.1098 8.98938 19.2838 8.16706 18.2692 8.16706C17.1409 8.16706 16.2131 9.60144 15.9773 9.99964Z" fill="#E6D9A4"/>
<path d="M10.5004 5.03978L10.3991 4.9865C10.3102 4.93969 8.22583 3.82286 8.22583 2.26534C8.22583 1.01674 9.2463 0.000717163 10.5004 0.000717163C11.7544 0.000717163 12.7749 1.01674 12.7749 2.26534C12.7749 3.82358 10.6906 4.93969 10.6016 4.9865L10.5004 5.03978ZM10.5004 0.43204C9.48568 0.43204 8.65976 1.25436 8.65976 2.26462C8.65976 3.38794 10.1004 4.31179 10.5004 4.54653C10.9003 4.31179 12.3409 3.38794 12.3409 2.26462C12.3409 1.25436 11.515 0.43204 10.5004 0.43204Z" fill="#E6D9A4"/>
<path d="M10.5004 20C9.2463 20 8.22583 18.984 8.22583 17.7354C8.22583 16.1771 10.3102 15.061 10.3991 15.0142L10.5004 14.9609L10.6016 15.0142C10.6906 15.061 12.7749 16.1779 12.7749 17.7354C12.7749 18.984 11.7544 20 10.5004 20ZM10.5004 15.4535C10.1004 15.6882 8.65976 16.6121 8.65976 17.7354C8.65976 18.7456 9.48568 19.568 10.5004 19.568C11.515 19.568 12.3409 18.7456 12.3409 17.7354C12.3409 16.6121 10.9003 15.6882 10.5004 15.4535Z" fill="#E6D9A4"/>
<path d="M10.5004 15.4211C10.4447 15.4211 10.389 15.4002 10.347 15.3577L5.11961 10.153C5.07911 10.1127 5.05597 10.0572 5.05597 10.0004C5.05597 9.94347 5.07911 9.88802 5.11961 9.8477L10.347 4.64302C10.428 4.56237 10.5727 4.56237 10.6537 4.64302L15.8811 9.8477C15.9216 9.88802 15.9447 9.94347 15.9447 10.0004C15.9447 10.0572 15.9216 10.1127 15.8811 10.153L10.6537 15.3577C10.611 15.4002 10.5561 15.4211 10.5004 15.4211ZM5.57958 9.99964L10.5004 14.899L15.4211 9.99964L10.5004 5.10027L5.57958 9.99964Z" fill="#E6D9A4"/>
<path d="M12.2423 13.6857C12.1866 13.6857 12.1309 13.6648 12.089 13.6223L6.86156 8.41761C6.77694 8.33337 6.77694 8.19655 6.86156 8.1123C6.94617 8.02806 7.08359 8.02806 7.1682 8.1123L12.3956 13.317C12.4802 13.4012 12.4802 13.538 12.3956 13.6223C12.353 13.6648 12.298 13.6857 12.2423 13.6857Z" fill="#E6D9A4"/>
<path d="M13.9855 11.951C13.9298 11.951 13.8742 11.9302 13.8322 11.8877L8.60478 6.68299C8.52017 6.59874 8.52017 6.46193 8.60478 6.37768C8.6894 6.29343 8.82681 6.29343 8.91143 6.37768L14.1389 11.5824C14.2235 11.6666 14.2235 11.8034 14.1389 11.8877C14.0962 11.9302 14.0412 11.951 13.9855 11.951Z" fill="#E6D9A4"/>
<path d="M7.01488 11.951C6.95919 11.951 6.9035 11.9302 6.86156 11.8877C6.77694 11.8034 6.77694 11.6666 6.86156 11.5824L12.089 6.37769C12.1736 6.29344 12.311 6.29344 12.3956 6.37769C12.4802 6.46193 12.4802 6.59875 12.3956 6.683L7.1682 11.8877C7.12553 11.9302 7.07057 11.951 7.01488 11.951Z" fill="#E6D9A4"/>
<path d="M8.75707 13.6857C8.70138 13.6857 8.64569 13.6648 8.60375 13.6223C8.51913 13.538 8.51913 13.4012 8.60375 13.317L13.8312 8.1123C13.9158 8.02806 14.0532 8.02806 14.1378 8.1123C14.2224 8.19655 14.2224 8.33337 14.1378 8.41761L8.91039 13.6223C8.86772 13.6648 8.81276 13.6857 8.75707 13.6857Z" fill="#E6D9A4"/>
<path d="M7.01126 8.48099C6.95557 8.48099 6.89989 8.46011 6.85794 8.41762L6.25623 7.81852C5.68705 7.25183 5.68705 6.33013 6.25623 5.76344C6.53177 5.48909 6.89845 5.33788 7.28826 5.33788C7.67808 5.33788 8.04475 5.48909 8.3203 5.76344L8.92201 6.36254C9.00663 6.44679 9.00663 6.5836 8.92201 6.66785C8.83739 6.7521 8.69998 6.7521 8.61537 6.66785L8.01365 6.06875C7.81983 5.87577 7.56236 5.76992 7.28826 5.76992C7.01416 5.76992 6.75669 5.87649 6.56287 6.06875C6.16293 6.46695 6.16293 7.11501 6.56287 7.51321L7.16459 8.11231C7.24921 8.19656 7.24921 8.33338 7.16459 8.41762C7.12192 8.46011 7.06695 8.48099 7.01126 8.48099Z" fill="#E6D9A4"/>
<path d="M13.994 8.48099C13.9383 8.48099 13.8826 8.46011 13.8407 8.41762C13.756 8.33338 13.756 8.19656 13.8407 8.11231L14.4424 7.51321C14.6362 7.32023 14.7425 7.06389 14.7425 6.79098C14.7425 6.51807 14.6355 6.26173 14.4424 6.06875C14.2486 5.87577 13.9911 5.76992 13.717 5.76992C13.4429 5.76992 13.1854 5.87649 12.9916 6.06875L12.3899 6.66785C12.3053 6.7521 12.1679 6.7521 12.0832 6.66785C11.9986 6.5836 11.9986 6.44679 12.0832 6.36254L12.685 5.76344C12.9605 5.48909 13.3272 5.33788 13.717 5.33788C14.1068 5.33788 14.4735 5.48909 14.749 5.76344C15.0246 6.03779 15.1764 6.40286 15.1764 6.79098C15.1764 7.1791 15.0246 7.54418 14.749 7.81852L14.1473 8.41762C14.1046 8.46011 14.0497 8.48099 13.994 8.48099Z" fill="#E6D9A4"/>
<path d="M7.28826 14.6621C6.89845 14.6621 6.53177 14.5109 6.25623 14.2365C5.68705 13.6698 5.68705 12.7481 6.25623 12.1814L6.85795 11.5823C6.94257 11.4981 7.07998 11.4981 7.16459 11.5823C7.24921 11.6666 7.24921 11.8034 7.16459 11.8876L6.56287 12.4867C6.16293 12.8849 6.16293 13.533 6.56287 13.9312C6.75669 14.1242 7.01416 14.23 7.28826 14.23C7.56236 14.23 7.81983 14.1235 8.01365 13.9312L8.61537 13.3321C8.69998 13.2479 8.83739 13.2479 8.92201 13.3321C9.00663 13.4164 9.00663 13.5532 8.92201 13.6374L8.3203 14.2365C8.04475 14.5109 7.67808 14.6621 7.28826 14.6621Z" fill="#E6D9A4"/>
<path d="M13.718 14.6621C13.3282 14.6621 12.9615 14.5109 12.6859 14.2365L12.0842 13.6374C11.9996 13.5532 11.9996 13.4164 12.0842 13.3321C12.1688 13.2479 12.3062 13.2479 12.3909 13.3321L12.9926 13.9312C13.1864 14.1242 13.4439 14.2301 13.718 14.2301C13.9921 14.2301 14.2495 14.1235 14.4434 13.9312C14.6372 13.7383 14.7435 13.4819 14.7435 13.209C14.7435 12.9361 14.6365 12.6797 14.4434 12.4868L13.8416 11.8877C13.757 11.8034 13.757 11.6666 13.8416 11.5824C13.9263 11.4981 14.0637 11.4981 14.1483 11.5824L14.75 12.1815C15.0255 12.4558 15.1774 12.8209 15.1774 13.209C15.1774 13.5971 15.0255 13.9622 14.75 14.2365C14.4745 14.5109 14.1078 14.6621 13.718 14.6621Z" fill="#E6D9A4"/>
</svg>
